<?xml version="1.0"?>
<svg xmlns="http://www.w3.org/2000/svg" xmlns:xlink="http://www.w3.org/1999/xlink" xmlns:svgjs="http://svgjs.com/svgjs" version="1.1" width="512" height="512" x="0" y="0" viewBox="0 0 512 512" style="enable-background:new 0 0 512 512" xml:space="preserve"><g>
<g xmlns="http://www.w3.org/2000/svg">
	<g>
		<path d="M256,0C114.62,0,0,114.611,0,256c0,141.38,114.62,256,256,256c141.389,0,256-114.62,256-256C512,114.611,397.389,0,256,0z     M256,486.4C128.956,486.4,25.6,383.044,25.6,256S128.956,25.6,256,25.6S486.4,128.956,486.4,256S383.044,486.4,256,486.4z" fill="#ffffff" data-original="#000000" style=""/>
	</g>
</g>
<g xmlns="http://www.w3.org/2000/svg">
	<g>
		<path d="M376.004,324.71c-1.604-2.637-4.139-4.514-7.603-5.589c-3.473-1.05-6.673-0.922-9.6,0.401    c-3.473,1.604-5.734,4.403-6.801,8.397c-5.077,16-15.599,28.954-31.599,38.801c-16.273,10.146-35.2,15.198-56.798,15.198    c-26.402,0-48.273-7.45-65.604-22.4c-18.671-15.727-30.541-38.801-35.601-69.197h143.198c3.729,0,6.929-1.203,9.6-3.601    c2.398-1.852,3.729-4.25,4.002-7.202c0.265-2.927-0.538-5.325-2.398-7.202c-2.133-2.125-5.197-3.2-9.199-3.2H160v-14.404V244.71    h149.999c3.729,0,6.929-1.203,9.6-3.601c2.398-1.852,3.729-4.25,4.002-7.202c0.265-2.927-0.538-5.325-2.398-7.202    c-2.133-2.125-5.197-3.2-9.199-3.2H161.596c5.598-28.8,17.724-51.448,36.403-68.002c18.398-16,40.26-24.004,65.604-24.004    c22.127,0,40.525,4.403,55.202,13.201c14.925,9.071,25.062,22.4,30.404,40.004c1.067,4.002,3.328,7.074,6.801,9.199    c2.662,1.604,5.726,2.15,9.199,1.604c3.2-0.529,5.598-1.997,7.202-4.403c2.125-2.927,2.799-6.246,1.997-10.001    c-4.275-20.25-14.541-36.651-30.797-49.203c-20.002-14.925-46.677-22.4-80-22.4c-32.538,0-60.399,10.547-83.601,31.599    c-22.673,20.548-36.941,48-42.803,82.398H115.61c-4.002,0-7.074,1.075-9.199,3.2c-2.133,1.877-3.2,4.275-3.2,7.202    c-0.273,2.953,0.529,5.35,2.398,7.202c1.86,2.398,4.659,3.601,8.397,3.601h21.197v10.001v14.404h-19.601    c-4.002,0-7.074,1.075-9.199,3.2c-2.133,1.877-3.2,4.275-3.2,7.202c-0.273,2.953,0.529,5.35,2.398,7.202    c1.86,2.398,4.659,3.601,8.397,3.601h23.202c5.598,36.002,19.601,64,42.001,84.002c21.862,19.746,49.997,29.602,84.403,29.602    c32.529,0,59.059-7.851,79.599-23.603c15.198-11.725,26.266-26.65,33.203-44.8C377.728,331.511,377.609,327.91,376.004,324.71z" fill="#ffffff" data-original="#000000" style=""/>
	</g>
</g>
<g xmlns="http://www.w3.org/2000/svg">
</g>
<g xmlns="http://www.w3.org/2000/svg">
</g>
<g xmlns="http://www.w3.org/2000/svg">
</g>
<g xmlns="http://www.w3.org/2000/svg">
</g>
<g xmlns="http://www.w3.org/2000/svg">
</g>
<g xmlns="http://www.w3.org/2000/svg">
</g>
<g xmlns="http://www.w3.org/2000/svg">
</g>
<g xmlns="http://www.w3.org/2000/svg">
</g>
<g xmlns="http://www.w3.org/2000/svg">
</g>
<g xmlns="http://www.w3.org/2000/svg">
</g>
<g xmlns="http://www.w3.org/2000/svg">
</g>
<g xmlns="http://www.w3.org/2000/svg">
</g>
<g xmlns="http://www.w3.org/2000/svg">
</g>
<g xmlns="http://www.w3.org/2000/svg">
</g>
<g xmlns="http://www.w3.org/2000/svg">
</g>
</g></svg>
