<?xml version="1.0"?>
<svg xmlns="http://www.w3.org/2000/svg" xmlns:xlink="http://www.w3.org/1999/xlink" xmlns:svgjs="http://svgjs.com/svgjs" version="1.1" width="512" height="512" x="0" y="0" viewBox="0 0 512 512" style="enable-background:new 0 0 512 512" xml:space="preserve" class=""><g><g xmlns="http://www.w3.org/2000/svg"><path d="M224,200a8,8,0,0,0,0-16H208a8,8,0,0,0,0,16Z" fill="#ffffff" data-original="#000000" style="" class=""/><path d="M288,200h16a8,8,0,0,0,0-16H288a8,8,0,0,0,0,16Z" fill="#ffffff" data-original="#000000" style="" class=""/><path d="M456,344a48.051,48.051,0,0,0,48-48,47.548,47.548,0,0,0-15.28-35.12c9.79-53.81,9.77-109.42-.08-169.69A47.542,47.542,0,0,0,504,56a48.006,48.006,0,0,0-83.46-32.36,1783.777,1783.777,0,0,0-329.08,0A48.006,48.006,0,0,0,8,56,47.563,47.563,0,0,0,23.12,90.98c-9.69,44.8-9.58,99.02.33,169.74A48,48,0,0,0,56,344a47.607,47.607,0,0,0,35.46-15.64q20.01,1.86,40.19,3.27l-4.14.97c-29.48,6.94-50.24,28.55-54.63,56.06q-28.755,1.455-57.41,3.36A8,8,0,0,0,8,400v96a8,8,0,0,0,16,0V407.49a3613.654,3613.654,0,0,1,464,0V496a8,8,0,0,0,16,0V400a8,8,0,0,0-7.47-7.98q-28.65-1.92-57.41-3.36c-4.39-27.51-25.15-49.12-54.63-56.06l-4.14-.97q20.145-1.41,40.19-3.27A47.607,47.607,0,0,0,456,344Zm-75.17,4.18c21.72,5.11,37.35,20.24,41.84,39.68-110.86-5.09-222.48-5.09-333.34,0,4.49-19.44,20.12-34.57,41.84-39.68l57.26-13.48c7.45.29,14.85.53,22.11.71a48,48,0,0,0,90.92,0c7.26-.18,14.67-.42,22.11-.71ZM160,152V128a72.083,72.083,0,0,1,72-72h48a72.083,72.083,0,0,1,72,72v24h-8V130.75a8.39,8.39,0,0,0-.47-7.42c-.16-.26-3.97-6.34-11.26-2.63-.54.28-1.32.69-2.31,1.23-1.84.99-4.45,2.43-7.57,4.15-7.35,4.06-24.67,13.62-37.3,19.95l2.5-7.5a8,8,0,0,0-10.12-10.12C276.76,128.65,206.33,152,176,152Zm8,16v48h-8a8.011,8.011,0,0,1-8-8V176a8.011,8.011,0,0,1,8-8Zm192,8v32a8.011,8.011,0,0,1-8,8h-8V168h8A8.011,8.011,0,0,1,360,176Zm-176-8.38c24.9-2.13,62.6-12.85,83.44-19.24l-3.03,9.09A8,8,0,0,0,272,168c5.03,0,14.79-4.04,56-26.74V224a72,72,0,0,1-144,0ZM288,305.98V320a31.738,31.738,0,0,1-.58,6.06.433.433,0,0,1-.01.05v.01a32,32,0,0,1-62.83-.07A31.558,31.558,0,0,1,224,320V305.98a88.06,88.06,0,0,0,64,0Zm37.11,12.65L304,313.66V297.72A88.077,88.077,0,0,0,343.63,232H352a24.032,24.032,0,0,0,24-24V176a23.937,23.937,0,0,0-8-17.87V128a88.1,88.1,0,0,0-88-88H232a88.1,88.1,0,0,0-88,88v30.13A23.937,23.937,0,0,0,136,176v32a24.032,24.032,0,0,0,24,24h8.37A88.077,88.077,0,0,0,208,297.72v15.94l-21.11,4.97c-32.62-1.28-65.63-3.49-98.13-6.59a7.975,7.975,0,0,0-7.15,3.15,32,32,0,1,1-44.8-44.8,7.99,7.99,0,0,0,3.11-7.53c-10.61-73.42-10.65-128.4-.13-173.02a7.985,7.985,0,0,0-2.98-8.23,32,32,0,1,1,44.8-44.8,7.975,7.975,0,0,0,7.15,3.15,1768.027,1768.027,0,0,1,334.48,0,7.975,7.975,0,0,0,7.15-3.15,32,32,0,1,1,44.8,44.8,8.012,8.012,0,0,0-3.08,7.74c10.56,61.83,10.57,118.46.03,173.14a8.008,8.008,0,0,0,3.05,7.9,32,32,0,1,1-44.8,44.8,7.986,7.986,0,0,0-7.15-3.15C390.74,315.14,357.73,317.35,325.11,318.63Z" fill="#ffffff" data-original="#000000" style="" class=""/><path d="M226.833,244.617C231.8,251.639,242.971,256,256,256s24.2-4.361,29.167-11.383a8,8,0,1,0-13.065-9.234c-1.023,1.446-6.5,4.617-16.1,4.617s-15.079-3.171-16.1-4.617a8,8,0,1,0-13.065,9.234Z" fill="#ffffff" data-original="#000000" style="" class=""/></g></g></svg>
